<?xml version="1.0" standalone="no"?>
<!DOCTYPE svg PUBLIC "-//W3C//DTD SVG 20010904//EN"
 "http://www.w3.org/TR/2001/REC-SVG-20010904/DTD/svg10.dtd">
<svg version="1.0" xmlns="http://www.w3.org/2000/svg"
 width="277.000000pt" height="131.000000pt" viewBox="0 0 277.000000 131.000000"
 preserveAspectRatio="xMidYMid meet">

<g transform="translate(0.000000,131.000000) scale(0.100000,-0.100000)"
fill="#67dd0a" stroke="none">
<path d="M26 1204 c21 -50 17 -762 -5 -787 -12 -16 -3 -17 124 -17 127 0 137
1 129 18 -11 22 -12 769 -1 800 l8 22 -135 0 -135 0 15 -36z"/>
<path d="M502 1207 c22 -70 -120 -674 -182 -774 l-20 -33 148 0 c177 0 183 3
190 81 3 41 -2 73 -22 130 -14 42 -26 79 -26 83 0 4 26 6 57 4 53 -3 57 -5 65
-33 12 -40 15 -226 4 -247 -8 -17 3 -18 158 -18 91 0 166 2 166 4 0 3 -9 20
-19 38 -56 95 -189 665 -177 756 l6 42 -179 0 -179 0 10 -33z m120 -196 c14
-30 35 -96 47 -145 33 -142 36 -131 -38 -131 l-65 0 -20 55 c-25 69 -30 237
-7 264 25 30 54 15 83 -43z"/>
<path d="M1060 1232 c0 -4 6 -14 13 -20 18 -19 18 -757 -1 -789 l-13 -23 104
0 c90 0 108 3 131 21 41 32 35 78 -20 174 -111 193 -137 265 -138 387 -1 48 3
72 15 83 14 14 17 14 33 -4 10 -11 61 -143 112 -292 52 -150 104 -287 115
-306 25 -40 70 -65 108 -61 l27 3 -12 85 c-19 123 -18 187 3 198 14 8 8 33
-57 223 -86 251 -111 306 -146 319 -30 12 -274 13 -274 2z"/>
<path d="M1527 1230 c-45 -14 -57 -29 -57 -74 0 -34 13 -63 62 -146 79 -135
107 -206 118 -297 6 -54 13 -78 26 -88 18 -13 19 -3 24 278 4 212 9 298 18
315 l13 22 -88 -1 c-48 0 -101 -5 -116 -9z"/>
<path d="M1547 663 c-5 -9 4 -88 33 -313 32 -235 28 -229 100 -155 24 25 48
45 52 45 4 0 25 -26 45 -58 23 -33 47 -58 59 -60 23 -3 74 33 74 52 0 7 -16
38 -35 71 -20 32 -34 60 -32 61 2 2 30 9 63 15 89 18 95 29 37 74 -99 76 -377
275 -384 275 -4 0 -10 -3 -12 -7z m209 -155 c186 -137 194 -144 194 -150 0 -3
-28 -11 -62 -18 -91 -19 -93 -20 -66 -61 13 -19 34 -52 47 -74 22 -37 22 -40
5 -52 -32 -23 -48 -14 -89 52 -22 36 -45 65 -51 65 -7 0 -30 -20 -52 -45 -22
-25 -44 -45 -50 -45 -6 0 -13 26 -16 58 -4 31 -13 104 -21 162 -35 243 -35
247 -10 232 6 -4 83 -60 171 -124z"/>
</g>
</svg>
